# xmcd CD database file
#
# Track frame offsets:
#	150
#	28405
#	57619
#	99341
#	124151
#	149268
#	189503
#	200958
#	211333
#	245304
#	262250
#	272360
#
# Disc length: 4191 seconds
#
# Revision: 1
# Processed by: cddbd v1.5.2PL0 Copyright (c) Steve Scherf et al.
# Submitted via: CDex 1.51
#
DISCID=bf105d0c
DTITLE=Crimson Jazz Trio - Volume 2
DYEAR=2006
DGENRE=Jazz
TTITLE0=The Court Of The Crimson King
TTITLE1=Pictures Of A City
TTITLE2=One Time
TTITLE3=Frame By Frame
TTITLE4=Inner Garden
TTITLE5=Heartbeat
TTITLE6=Press Gang
TTITLE7=Zero Dark Thirty
TTITLE8=Formentera Lady
TTITLE9=Sailor's Tale
TTITLE10=The Plank
TTITLE11=Lament
EXTD=YEAR: 2006
EXTT0=
EXTT1=
EXTT2=
EXTT3=
EXTT4=
EXTT5=
EXTT6=
EXTT7=
EXTT8=
EXTT9=
EXTT10=
EXTT11=
PLAYORDER=
